<svg xmlns="http://www.w3.org/2000/svg" viewBox="0 0 512 512" role="img" aria-label="Matrix API">
  <defs>
    <linearGradient id="matrix-logo-gradient" x1="70" y1="440" x2="446" y2="70" gradientUnits="userSpaceOnUse">
      <stop offset="0" stop-color="#16d9e3"/>
      <stop offset="0.5" stop-color="#5d7cf8"/>
      <stop offset="1" stop-color="#ff4fb8"/>
    </linearGradient>
    <radialGradient id="matrix-logo-core" cx="258" cy="240" r="198" gradientUnits="userSpaceOnUse">
      <stop offset="0" stop-color="#243a7f"/>
      <stop offset="1" stop-color="#071426"/>
    </radialGradient>
    <filter id="matrix-logo-glow" x="-35%" y="-35%" width="170%" height="170%">
      <feGaussianBlur stdDeviation="16" result="blur"/>
      <feMerge>
        <feMergeNode in="blur"/>
        <feMergeNode in="SourceGraphic"/>
      </feMerge>
    </filter>
  </defs>
  <path d="M90 354V158c0-33 38-51 64-31l102 80 102-80c26-20 64-2 64 31v196c0 33-37 51-64 31L256 306 154 385c-27 20-64 2-64-31Z" fill="url(#matrix-logo-core)" stroke="url(#matrix-logo-gradient)" stroke-width="28" filter="url(#matrix-logo-glow)"/>
  <path d="M154 322V184l102 81 102-81v138" fill="none" stroke="url(#matrix-logo-gradient)" stroke-width="40" stroke-linecap="round" stroke-linejoin="round"/>
  <g class="matrix-node" fill="#f7fbff" stroke="#061423" stroke-width="14">
    <circle cx="154" cy="184" r="30"/>
    <circle cx="256" cy="266" r="30"/>
    <circle cx="358" cy="184" r="30"/>
    <circle cx="154" cy="322" r="26"/>
    <circle cx="358" cy="322" r="26"/>
  </g>
</svg>
